HIERARCHY
ROOT pelvis
{
  OFFSET 0 100 0
  CHANNELS 6 Xposition Yposition Zposition Zrotation Xrotation Yrotation
  JOINT pelvis_right_femur
  {
    OFFSET -10.78128 -3.44521 -0.5502486
    CHANNELS 3 Zrotation Xrotation Yrotation
    JOINT right_femur_tibia
    {
      OFFSET -0.8047443 -44.0398 -0.1307829
      CHANNELS 3 Zrotation Xrotation Yrotation
      JOINT right_tibia_foot
      {
        OFFSET 3.006224 -47.83518 -5
        CHANNELS 3 Zrotation Xrotation Yrotation
        End Site
        {
          OFFSET 0 -5 15
        }
      }
    }
  }
  JOINT pelvis_left_femur
  {
    OFFSET 10.78128 -3.44521 -0.5502486
    CHANNELS 3 Zrotation Xrotation Yrotation
    JOINT left_femur_tibia
    {
      OFFSET 0.8047443 -44.0398 -0.1307829
      CHANNELS 3 Zrotation Xrotation Yrotation
      JOINT left_tibia_foot
      {
        OFFSET -4.370144 -48.10324 -4.275266
        CHANNELS 3 Zrotation Xrotation Yrotation
        End Site
        {
          OFFSET 0 -5 15
        }
      }
    }
  }
  JOINT pelvis_spine1
  {
    OFFSET 0 6.468898 -3.129235
    CHANNELS 3 Zrotation Xrotation Yrotation
    JOINT spine1
    {
      OFFSET 0 23.15396 4.99043
      CHANNELS 3 Zrotation Xrotation Yrotation
      JOINT spine2
      {
        OFFSET 0 20.79997 -5.064912
        CHANNELS 3 Zrotation Xrotation Yrotation
        JOINT neck
        {
          OFFSET 0 14.38658 9.616178
          CHANNELS 3 Zrotation Xrotation Yrotation
          End Site
          {
            OFFSET 0 20 0
          }
        }
      }
      JOINT right_manubrium
      {
        OFFSET -5.722621 16.35077 3.967754
        CHANNELS 3 Zrotation Xrotation Yrotation
        JOINT right_clavicle
        {
          OFFSET -13.16364 1.694482 -4.693211
          CHANNELS 3 Zrotation Xrotation Yrotation
          JOINT right_humerus
          {
            OFFSET -28.5034 -0.3100689 -2.792744
            CHANNELS 3 Zrotation Xrotation Yrotation
            JOINT right_radius
            {
              OFFSET -25.15693 0.02248979 -1.271978
              CHANNELS 3 Zrotation Xrotation Yrotation
              End Site
              {
                OFFSET -15 0 0
              }
            }
          }
        }
      }
      JOINT left_manubrium
      {
        OFFSET 5.722621 16.35077 3.967754
        CHANNELS 3 Zrotation Xrotation Yrotation
        JOINT left_clavicle
        {
          OFFSET 13.16364 1.694482 -4.693211
          CHANNELS 3 Zrotation Xrotation Yrotation
          JOINT left_humerus
          {
            OFFSET 29.39168 -1.063119 -2.237045
            CHANNELS 3 Zrotation Xrotation Yrotation
            JOINT left_radius
            {
              OFFSET 24.59957 -0.9528479 0.9047498
              CHANNELS 3 Zrotation Xrotation Yrotation
              End Site
              {
                OFFSET 15 -0 -0
              }
            }
          }
        }
      }
    }
  }
}
MOTION
Frames: 13
Frame Time: 0.0416666666667
-108.2567 129.7992 258.0844 12.70562 -10.30619 46.51764 5.748684 3.886971 -7.470878 -0 10.24401 -0 -10.46451 1.784293 -0.728314 1.154533 -3.705788 0.8251944 -0 26.57991 -0 -0.4072007 -5.526486 6.456357 2.486143 -6.081937 8.405423 -2.371452 21.18705 -5.774524 2.141451 20.61206 -1.228889 1.568782 -11.30249 -0.2068044 -4.632859 -31.58038 13.05532 95.43022 0.7918943 -17.68356 -0 0 28.52727 -30.96482 16.29955 12.98419 2.432938 -29.27527 -16.4409 -89.84445 9.529374 32.77693 0 0 -24.16484 2.27969 20.69947 9.800104
-103.3137 129.7465 261.9071 12.56396 -10.47933 45.73241 5.748684 3.886971 -7.470878 -0 10.24401 -0 -10.46451 1.784293 -0.728314 1.154533 -3.705788 0.8251944 -0 26.57991 -0 -0.4072007 -5.526486 6.456357 2.486143 -6.081937 8.405423 -2.371452 21.18705 -5.774524 2.141451 20.61206 -1.228889 1.568782 -11.30249 -0.2068044 -4.632859 -31.58038 13.05532 95.43022 0.7918943 -17.68356 -0 0 28.52727 -30.96482 16.29955 12.98419 2.432938 -29.27527 -16.4409 -89.84445 9.529374 32.77693 0 0 -24.16484 2.27969 20.69947 9.800104
-98.42401 129.6939 265.7978 12.41983 -10.65054 44.94631 5.748684 3.886971 -7.470878 -0 10.24401 -0 -10.46451 1.784293 -0.728314 1.154533 -3.705788 0.8251944 -0 26.57991 -0 -0.4072007 -5.526486 6.456357 2.486143 -6.081937 8.405423 -2.371452 21.18705 -5.774524 2.141451 20.61206 -1.228889 1.568782 -11.30249 -0.2068044 -4.632859 -31.58038 13.05532 95.43022 0.7918943 -17.68356 -0 0 28.52727 -30.96482 16.29955 12.98419 2.432938 -29.27527 -16.4409 -89.84445 9.529374 32.77693 0 0 -24.16484 2.27969 20.69947 9.800104
-93.58852 129.6412 269.7556 12.27324 -10.81978 44.15933 5.748684 3.886971 -7.470878 -0 10.24401 -0 -10.46451 1.784293 -0.728314 1.154533 -3.705788 0.8251944 -0 26.57991 -0 -0.4072007 -5.526486 6.456357 2.486143 -6.081937 8.405423 -2.371452 21.18705 -5.774524 2.141451 20.61206 -1.228889 1.568782 -11.30249 -0.2068044 -4.632859 -31.58038 13.05532 95.43022 0.7918943 -17.68356 -0 0 28.52727 -30.96482 16.29955 12.98419 2.432938 -29.27527 -16.4409 -89.84445 9.529374 32.77693 0 0 -24.16484 2.27969 20.69947 9.800104
-88.80816 129.5885 273.7798 12.12421 -10.98703 43.37147 5.748684 3.886971 -7.470878 -0 10.24401 -0 -10.46451 1.784293 -0.728314 1.154533 -3.705788 0.8251944 -0 26.57991 -0 -0.4072007 -5.526486 6.456357 2.486143 -6.081937 8.405423 -2.371452 21.18705 -5.774524 2.141451 20.61206 -1.228889 1.568782 -11.30249 -0.2068044 -4.632859 -31.58038 13.05532 95.43022 0.7918943 -17.68356 -0 0 28.52727 -30.96482 16.29955 12.98419 2.432938 -29.27527 -16.4409 -89.84445 9.529374 32.77693 0 0 -24.16484 2.27969 20.69947 9.800104
-84.08385 129.5358 277.8697 11.97276 -11.15226 42.58272 5.748684 3.886971 -7.470878 -0 10.24401 -0 -10.46451 1.784293 -0.728314 1.154533 -3.705788 0.8251944 -0 26.57991 -0 -0.4072007 -5.526486 6.456357 2.486143 -6.081937 8.405423 -2.371452 21.18705 -5.774524 2.141451 20.61206 -1.228889 1.568782 -11.30249 -0.2068044 -4.632859 -31.58038 13.05532 95.43022 0.7918943 -17.68356 -0 0 28.52727 -30.96482 16.29955 12.98419 2.432938 -29.27527 -16.4409 -89.84445 9.529374 32.77693 0 0 -24.16484 2.27969 20.69947 9.800104
-79.41649 129.4831 282.0245 11.81893 -11.31542 41.79308 5.748684 3.886971 -7.470878 -0 10.24401 -0 -10.46451 1.784293 -0.728314 1.154533 -3.705788 0.8251944 -0 26.57991 -0 -0.4072007 -5.526486 6.456357 2.486143 -6.081937 8.405423 -2.371452 21.18705 -5.774524 2.141451 20.61206 -1.228889 1.568782 -11.30249 -0.2068044 -4.632859 -31.58038 13.05532 95.43022 0.7918943 -17.68356 -0 0 28.52727 -30.96482 16.29955 12.98419 2.432938 -29.27527 -16.4409 -89.84445 9.529374 32.77693 0 0 -24.16484 2.27969 20.69947 9.800104
-74.80697 129.4305 286.2433 11.66273 -11.47648 41.00254 5.748684 3.886971 -7.470878 -0 10.24401 -0 -10.46451 1.784293 -0.728314 1.154533 -3.705788 0.8251944 -0 26.57991 -0 -0.4072007 -5.526486 6.456357 2.486143 -6.081937 8.405423 -2.371452 21.18705 -5.774524 2.141451 20.61206 -1.228889 1.568782 -11.30249 -0.2068044 -4.632859 -31.58038 13.05532 95.43022 0.7918943 -17.68356 -0 0 28.52727 -30.96482 16.29955 12.98419 2.432938 -29.27527 -16.4409 -89.84445 9.529374 32.77693 0 0 -24.16484 2.27969 20.69947 9.800104
-70.25617 129.3778 290.5254 11.50418 -11.63541 40.21111 5.748684 3.886971 -7.470878 -0 10.24401 -0 -10.46451 1.784293 -0.728314 1.154533 -3.705788 0.8251944 -0 26.57991 -0 -0.4072007 -5.526486 6.456357 2.486143 -6.081937 8.405423 -2.371452 21.18705 -5.774524 2.141451 20.61206 -1.228889 1.568782 -11.30249 -0.2068044 -4.632859 -31.58038 13.05532 95.43022 0.7918943 -17.68356 -0 0 28.52727 -30.96482 16.29955 12.98419 2.432938 -29.27527 -16.4409 -89.84445 9.529374 32.77693 0 0 -24.16484 2.27969 20.69947 9.800104
-65.76496 129.3251 294.87 11.34332 -11.79219 39.41878 5.748684 3.886971 -7.470878 -0 10.24401 -0 -10.46451 1.784293 -0.728314 1.154533 -3.705788 0.8251944 -0 26.57991 -0 -0.4072007 -5.526486 6.456357 2.486143 -6.081937 8.405423 -2.371452 21.18705 -5.774524 2.141451 20.61206 -1.228889 1.568782 -11.30249 -0.2068044 -4.632859 -31.58038 13.05532 95.43022 0.7918943 -17.68356 -0 0 28.52727 -30.96482 16.29955 12.98419 2.432938 -29.27527 -16.4409 -89.84445 9.529374 32.77693 0 0 -24.16484 2.27969 20.69947 9.800104
-61.33419 129.2724 299.2762 11.18016 -11.94676 38.62554 5.748684 3.886971 -7.470878 -0 10.24401 -0 -10.46451 1.784293 -0.728314 1.154533 -3.705788 0.8251944 -0 26.57991 -0 -0.4072007 -5.526486 6.456357 2.486143 -6.081937 8.405423 -2.371452 21.18705 -5.774524 2.141451 20.61206 -1.228889 1.568782 -11.30249 -0.2068044 -4.632859 -31.58038 13.05532 95.43022 0.7918943 -17.68356 -0 0 28.52727 -30.96482 16.29955 12.98419 2.432938 -29.27527 -16.4409 -89.84445 9.529374 32.77693 0 0 -24.16484 2.27969 20.69947 9.800104
-56.96471 129.2197 303.7432 11.01474 -12.09911 37.83141 5.748684 3.886971 -7.470878 -0 10.24401 -0 -10.46451 1.784293 -0.728314 1.154533 -3.705788 0.8251944 -0 26.57991 -0 -0.4072007 -5.526486 6.456357 2.486143 -6.081937 8.405423 -2.371452 21.18705 -5.774524 2.141451 20.61206 -1.228889 1.568782 -11.30249 -0.2068044 -4.632859 -31.58038 13.05532 95.43022 0.7918943 -17.68356 -0 0 28.52727 -30.96482 16.29955 12.98419 2.432938 -29.27527 -16.4409 -89.84445 9.529374 32.77693 0 0 -24.16484 2.27969 20.69947 9.800104
-52.65736 129.1671 308.2701 10.84707 -12.24921 37.03638 5.748684 3.886971 -7.470878 -0 10.24401 -0 -10.46451 1.784293 -0.728314 1.154533 -3.705788 0.8251944 -0 26.57991 -0 -0.4072007 -5.526486 6.456357 2.486143 -6.081937 8.405423 -2.371452 21.18705 -5.774524 2.141451 20.61206 -1.228889 1.568782 -11.30249 -0.2068044 -4.632859 -31.58038 13.05532 95.43022 0.7918943 -17.68356 -0 0 28.52727 -30.96482 16.29955 12.98419 2.432938 -29.27527 -16.4409 -89.84445 9.529374 32.77693 0 0 -24.16484 2.27969 20.69947 9.800104
